<svg width="20" height="20" viewBox="0 0 20 20" fill="none" xmlns="http://www.w3.org/2000/svg">
<path d="M1.8999 9.8999C1.8999 6.12866 1.8999 4.24305 3.07148 3.07148C4.24305 1.8999 6.12867 1.8999 9.8999 1.8999H10.0999C13.8711 1.8999 15.7568 1.8999 16.9283 3.07148C18.0999 4.24305 18.0999 6.12867 18.0999 9.8999V10.0999C18.0999 13.8711 18.0999 15.7568 16.9283 16.9283C15.7568 18.0999 13.8711 18.0999 10.0999 18.0999H9.8999C6.12866 18.0999 4.24305 18.0999 3.07148 16.9283C1.8999 15.7568 1.8999 13.8711 1.8999 10.0999V9.8999Z" stroke="#FF6F61" stroke-width="2"/>
<path d="M10 6.3999L10 13.5999" stroke="#FF6F61" stroke-width="2" stroke-linecap="square" stroke-linejoin="round"/>
<path d="M13.6001 10L6.4001 10" stroke="#FF6F61" stroke-width="2" stroke-linecap="square" stroke-linejoin="round"/>
</svg>
