<svg width="24" height="23" viewBox="0 0 24 23" fill="none" xmlns="http://www.w3.org/2000/svg">
<g filter="url(#filter0_d_1224_4057)">
<path d="M18.1665 8.33366H19.8332C21.4998 8.33366 22.3332 7.50033 22.3332 5.83366V4.16699C22.3332 2.50033 21.4998 1.66699 19.8332 1.66699H18.1665C16.4998 1.66699 15.6665 2.50033 15.6665 4.16699V5.83366C15.6665 7.50033 16.4998 8.33366 18.1665 8.33366Z" fill="url(#paint0_linear_1224_4057)" stroke="url(#paint1_linear_1224_4057)" stroke-width="1.5" stroke-miterlimit="10" stroke-linecap="round" stroke-linejoin="round"/>
<path d="M8.1665 18.3337H9.83317C11.4998 18.3337 12.3332 17.5003 12.3332 15.8337V14.167C12.3332 12.5003 11.4998 11.667 9.83317 11.667H8.1665C6.49984 11.667 5.6665 12.5003 5.6665 14.167V15.8337C5.6665 17.5003 6.49984 18.3337 8.1665 18.3337Z" fill="url(#paint2_linear_1224_4057)" stroke="url(#paint3_linear_1224_4057)" stroke-width="1.5" stroke-miterlimit="10" stroke-linecap="round" stroke-linejoin="round"/>
<path d="M8.99984 8.33366C10.8408 8.33366 12.3332 6.84127 12.3332 5.00033C12.3332 3.15938 10.8408 1.66699 8.99984 1.66699C7.15889 1.66699 5.6665 3.15938 5.6665 5.00033C5.6665 6.84127 7.15889 8.33366 8.99984 8.33366Z" fill="url(#paint4_linear_1224_4057)" stroke="url(#paint5_linear_1224_4057)" stroke-width="1.5" stroke-miterlimit="10" stroke-linecap="round" stroke-linejoin="round"/>
<path d="M18.9998 18.3337C20.8408 18.3337 22.3332 16.8413 22.3332 15.0003C22.3332 13.1594 20.8408 11.667 18.9998 11.667C17.1589 11.667 15.6665 13.1594 15.6665 15.0003C15.6665 16.8413 17.1589 18.3337 18.9998 18.3337Z" fill="url(#paint6_linear_1224_4057)" stroke="url(#paint7_linear_1224_4057)" stroke-width="1.5" stroke-miterlimit="10" stroke-linecap="round" stroke-linejoin="round"/>
</g>
<defs>
<filter id="filter0_d_1224_4057" x="0.916504" y="0.916992" width="22.1666" height="21.1667" filterUnits="userSpaceOnUse" color-interpolation-filters="sRGB">
<feFlood flood-opacity="0" result="BackgroundImageFix"/>
<feColorMatrix in="SourceAlpha" type="matrix" values="0 0 0 0 0 0 0 0 0 0 0 0 0 0 0 0 0 0 127 0" result="hardAlpha"/>
<feOffset dx="-3" dy="2"/>
<feGaussianBlur stdDeviation="0.5"/>
<feComposite in2="hardAlpha" operator="out"/>
<feColorMatrix type="matrix" values="0 0 0 0 0.423529 0 0 0 0 0.388235 0 0 0 0 1 0 0 0 0.25 0"/>
<feBlend mode="normal" in2="BackgroundImageFix" result="effect1_dropShadow_1224_4057"/>
<feBlend mode="normal" in="SourceGraphic" in2="effect1_dropShadow_1224_4057" result="shape"/>
</filter>
<linearGradient id="paint0_linear_1224_4057" x1="15.8443" y1="1.8655" x2="19.8081" y2="9.45007" gradientUnits="userSpaceOnUse">
<stop stop-color="#CE5BEB"/>
<stop offset="1" stop-color="#5B61EB"/>
</linearGradient>
<linearGradient id="paint1_linear_1224_4057" x1="15.8443" y1="1.8655" x2="19.8081" y2="9.45007" gradientUnits="userSpaceOnUse">
<stop stop-color="#CE5BEB"/>
<stop offset="1" stop-color="#5B61EB"/>
</linearGradient>
<linearGradient id="paint2_linear_1224_4057" x1="5.84428" y1="11.8655" x2="9.80809" y2="19.4501" gradientUnits="userSpaceOnUse">
<stop stop-color="#CE5BEB"/>
<stop offset="1" stop-color="#5B61EB"/>
</linearGradient>
<linearGradient id="paint3_linear_1224_4057" x1="5.84428" y1="11.8655" x2="9.80809" y2="19.4501" gradientUnits="userSpaceOnUse">
<stop stop-color="#CE5BEB"/>
<stop offset="1" stop-color="#5B61EB"/>
</linearGradient>
<linearGradient id="paint4_linear_1224_4057" x1="5.84428" y1="1.8655" x2="9.80809" y2="9.45007" gradientUnits="userSpaceOnUse">
<stop stop-color="#CE5BEB"/>
<stop offset="1" stop-color="#5B61EB"/>
</linearGradient>
<linearGradient id="paint5_linear_1224_4057" x1="5.84428" y1="1.8655" x2="9.80809" y2="9.45007" gradientUnits="userSpaceOnUse">
<stop stop-color="#CE5BEB"/>
<stop offset="1" stop-color="#5B61EB"/>
</linearGradient>
<linearGradient id="paint6_linear_1224_4057" x1="15.8443" y1="11.8655" x2="19.8081" y2="19.4501" gradientUnits="userSpaceOnUse">
<stop stop-color="#CE5BEB"/>
<stop offset="1" stop-color="#5B61EB"/>
</linearGradient>
<linearGradient id="paint7_linear_1224_4057" x1="15.8443" y1="11.8655" x2="19.8081" y2="19.4501" gradientUnits="userSpaceOnUse">
<stop stop-color="#CE5BEB"/>
<stop offset="1" stop-color="#5B61EB"/>
</linearGradient>
</defs>
</svg>
