<svg width="22" height="22" viewBox="0 0 22 22" fill="none" xmlns="http://www.w3.org/2000/svg">
<path d="M19.4241 7.36995L16.5091 4.45496C15.4091 3.35496 13.8966 3.40998 13.1541 4.59248L11.5316 7.15914L16.7291 12.3566L19.2958 10.7342C20.405 10.0283 20.4691 8.40579 19.4241 7.36995Z" stroke="white" stroke-width="1.5" stroke-linecap="round" stroke-linejoin="round"/>
<path d="M16.7291 12.3474L16.9491 16.1241C17.16 18.2324 16.4266 18.9657 14.4283 19.2041L6.43498 20.1483C4.74831 20.3408 3.53831 19.1308 3.73998 17.4533L4.63831 9.86328" stroke="white" stroke-width="1.5" stroke-linecap="round" stroke-linejoin="round"/>
<path d="M11.5317 7.15917L9.92749 7.05835" stroke="white" stroke-width="1.5" stroke-linecap="round" stroke-linejoin="round"/>
<path d="M4.83997 19.0482L7.75497 16.124" stroke="white" stroke-width="1.5" stroke-linecap="round" stroke-linejoin="round"/>
<path d="M10.0833 5.95825C10.0833 6.33409 10.0283 6.70993 9.92748 7.05826C9.82665 7.42493 9.67999 7.76409 9.48749 8.08493C9.26749 8.45159 8.99249 8.78159 8.67165 9.05659C7.94749 9.69826 7.00331 10.0833 5.95831 10.0833C5.49081 10.0833 5.05081 10.0099 4.63831 9.86326C3.70331 9.55159 2.92414 8.90993 2.42914 8.08493C2.05331 7.46159 1.83331 6.72825 1.83331 5.95825C1.83331 4.65659 2.42915 3.49241 3.38248 2.74074C4.08832 2.17241 4.98665 1.83325 5.95831 1.83325C8.24081 1.83325 10.0833 3.67575 10.0833 5.95825Z" stroke="white" stroke-width="1.5" stroke-miterlimit="10" stroke-linecap="round" stroke-linejoin="round"/>
<path d="M5.97668 7.49844V4.41846" stroke="white" stroke-width="1.5" stroke-miterlimit="10" stroke-linecap="round" stroke-linejoin="round"/>
<path d="M7.48002 5.9585H4.40002" stroke="white" stroke-width="1.5" stroke-miterlimit="10" stroke-linecap="round" stroke-linejoin="round"/>
</svg>
