<svg width="24" height="25" viewBox="0 0 24 25" fill="none" xmlns="http://www.w3.org/2000/svg">
<g filter="url(#filter0_d_1694_8876)">
<path d="M21.5 4.98368C18.725 4.70868 15.9333 4.56702 13.15 4.56702C11.5 4.56702 9.85 4.65035 8.2 4.81702L6.5 4.98368" stroke="#FF3B30" stroke-width="1.5" stroke-linecap="round" stroke-linejoin="round"/>
<path d="M11.0842 4.14211L11.2676 3.05045C11.4009 2.25878 11.5009 1.66711 12.9092 1.66711H15.0926C16.5009 1.66711 16.6092 2.29211 16.7342 3.05878L16.9176 4.14211" stroke="#FF3B30" stroke-width="1.5" stroke-linecap="round" stroke-linejoin="round"/>
<path d="M19.7094 7.61646L19.1677 16.0081C19.0761 17.3165 19.0011 18.3331 16.6761 18.3331H11.3261C9.00106 18.3331 8.92606 17.3165 8.83439 16.0081L8.29272 7.61646" stroke="#FF3B30" stroke-width="1.5" stroke-linecap="round" stroke-linejoin="round"/>
<path d="M12.6091 13.75H15.3841" stroke="#FF3B30" stroke-width="1.5" stroke-linecap="round" stroke-linejoin="round"/>
<path d="M11.9158 10.4171H16.0824" stroke="#FF3B30" stroke-width="1.5" stroke-linecap="round" stroke-linejoin="round"/>
</g>
<defs>
<filter id="filter0_d_1694_8876" x="0.75" y="0.917114" width="21.5" height="23.166" filterUnits="userSpaceOnUse" color-interpolation-filters="sRGB">
<feFlood flood-opacity="0" result="BackgroundImageFix"/>
<feColorMatrix in="SourceAlpha" type="matrix" values="0 0 0 0 0 0 0 0 0 0 0 0 0 0 0 0 0 0 127 0" result="hardAlpha"/>
<feOffset dx="-3" dy="3"/>
<feGaussianBlur stdDeviation="1"/>
<feComposite in2="hardAlpha" operator="out"/>
<feColorMatrix type="matrix" values="0 0 0 0 1 0 0 0 0 0.231373 0 0 0 0 0.188235 0 0 0 0.25 0"/>
<feBlend mode="normal" in2="BackgroundImageFix" result="effect1_dropShadow_1694_8876"/>
<feBlend mode="normal" in="SourceGraphic" in2="effect1_dropShadow_1694_8876" result="shape"/>
</filter>
</defs>
</svg>
