<svg width="20" height="20" viewBox="0 0 20 20" fill="none" xmlns="http://www.w3.org/2000/svg">
<path d="M12.4749 18.9584H7.47493C2.94993 18.9584 1.0166 17.0251 1.0166 12.5001V7.50008C1.0166 2.97508 2.94993 1.04175 7.47493 1.04175H9.1416C9.48327 1.04175 9.7666 1.32508 9.7666 1.66675C9.7666 2.00841 9.48327 2.29175 9.1416 2.29175H7.47493C3.63327 2.29175 2.2666 3.65841 2.2666 7.50008V12.5001C2.2666 16.3417 3.63327 17.7084 7.47493 17.7084H12.4749C16.3166 17.7084 17.6833 16.3417 17.6833 12.5001V10.8334C17.6833 10.4917 17.9666 10.2084 18.3083 10.2084C18.6499 10.2084 18.9333 10.4917 18.9333 10.8334V12.5001C18.9333 17.0251 17.0083 18.9584 12.4749 18.9584Z" fill="white"/>
<path d="M10.6498 12.6999C10.5248 12.6999 10.4082 12.6666 10.2998 12.5916C10.1248 12.4749 10.0248 12.2832 10.0248 12.0749C10.0248 11.9832 10.0165 11.8832 9.99983 11.7832C9.94149 11.3416 9.74149 10.9499 9.40816 10.6082C9.06649 10.2666 8.64983 10.0499 8.19149 9.99157C8.12483 9.98324 8.01649 9.97491 7.91649 9.98324C7.70816 9.99991 7.49983 9.90824 7.37483 9.74157C7.24983 9.57491 7.21649 9.34991 7.28316 9.14991C7.38316 8.86657 7.54149 8.59991 7.72483 8.39157L8.74983 7.10824C10.5332 4.88324 14.1248 2.21657 16.7748 1.15824C17.3832 0.924906 18.0248 1.05824 18.4665 1.49991C18.9248 1.95824 19.0582 2.60824 18.8165 3.19991C17.7582 5.84157 15.0915 9.44157 12.8748 11.2166L11.5665 12.2666C11.3082 12.4499 11.0998 12.5749 10.8832 12.6582C10.8082 12.6832 10.7248 12.6999 10.6498 12.6999ZM8.93316 8.89157C9.44149 9.05824 9.89983 9.34157 10.2915 9.72491C10.6748 10.1082 10.9498 10.5499 11.1082 11.0249L12.0915 10.2332C14.1665 8.56657 16.6665 5.19991 17.6582 2.72491C17.7248 2.56657 17.6498 2.44991 17.5832 2.37491C17.5415 2.33324 17.4248 2.24157 17.2332 2.31657C14.7665 3.30824 11.3998 5.80824 9.73316 7.88324L8.93316 8.89157Z" fill="white"/>
<path d="M6.4165 15.625C5.88316 15.625 5.37483 15.4167 4.9915 15.0334C4.54983 14.5917 4.33316 13.9834 4.40816 13.3584L4.58316 11.725C4.7665 10.0334 6.1415 8.78337 7.8665 8.75003C7.99983 8.7417 8.1665 8.75003 8.32483 8.75837C9.08316 8.85837 9.75816 9.1917 10.2915 9.73337C10.8248 10.2667 11.1498 10.9 11.2415 11.6167C11.2665 11.775 11.2748 11.9334 11.2748 12.0834C11.2748 12.9917 10.9248 13.85 10.2832 14.4917C9.75816 15.0167 9.07483 15.3417 8.29983 15.4417L6.64983 15.6167C6.5665 15.625 6.4915 15.625 6.4165 15.625ZM7.99983 9.9917C7.97483 9.9917 7.9415 9.9917 7.9165 9.9917C6.95816 10.0167 5.94983 10.6584 5.82483 11.8584L5.64983 13.5C5.62483 13.7417 5.70816 13.9834 5.87483 14.15C6.0415 14.3167 6.27483 14.4 6.50816 14.375L8.14983 14.2C8.63316 14.1417 9.0665 13.9334 9.3915 13.6084C9.7915 13.2 10.0165 12.6667 10.0165 12.0834C10.0165 11.9917 10.0082 11.8917 9.9915 11.7917C9.93316 11.35 9.73316 10.9584 9.39983 10.6167C9.05816 10.275 8.6415 10.0584 8.18316 10C8.1415 9.9917 8.07483 9.9917 7.99983 9.9917Z" fill="white"/>
<path d="M13.1832 10.6083C12.8416 10.6083 12.5582 10.325 12.5582 9.98328C12.5582 8.59162 11.4249 7.44995 10.0249 7.44995C9.68324 7.44995 9.3999 7.16662 9.3999 6.82495C9.3999 6.48328 9.68324 6.19995 10.0249 6.19995C12.1082 6.19995 13.8082 7.89162 13.8082 9.98328C13.8082 10.325 13.5332 10.6083 13.1832 10.6083Z" fill="white"/>
</svg>
