<svg width="29" height="29" viewBox="0 0 29 29" fill="none" xmlns="http://www.w3.org/2000/svg">
<path d="M26.5834 19.563C26.5834 23.9613 23.9613 26.5834 19.563 26.5834H18.1251C17.4605 26.5834 16.9167 26.0397 16.9167 25.3751V18.403C16.9167 18.0768 17.1826 17.7988 17.5088 17.7988L19.6355 17.7626C19.8047 17.7505 19.9497 17.6297 19.9859 17.4605L20.4088 15.1526C20.4451 14.9351 20.2759 14.7297 20.0463 14.7297L17.4726 14.7659C17.1342 14.7659 16.8684 14.5001 16.8563 14.1738L16.808 11.2134C16.808 11.0201 16.9651 10.8509 17.1705 10.8509L20.0705 10.8026C20.2759 10.8026 20.433 10.6455 20.433 10.4401L20.3847 7.54007C20.3847 7.33465 20.2276 7.17758 20.0222 7.17758L16.7597 7.22593C14.7538 7.26218 13.1588 8.9055 13.1951 10.9113L13.2555 14.2342C13.2676 14.5726 13.0018 14.8384 12.6634 14.8505L11.2134 14.8747C11.008 14.8747 10.8509 15.0317 10.8509 15.2371L10.8872 17.533C10.8872 17.7384 11.0442 17.8955 11.2497 17.8955L12.6997 17.8713C13.038 17.8713 13.3038 18.1372 13.3159 18.4634L13.4246 25.3509C13.4367 26.0276 12.893 26.5834 12.2163 26.5834H9.43716C5.03883 26.5834 2.41675 23.9613 2.41675 19.5509V9.43716C2.41675 5.03883 5.03883 2.41675 9.43716 2.41675H19.563C23.9613 2.41675 26.5834 5.03883 26.5834 9.43716V19.563V19.563Z" fill="#1877F2"/>
</svg>
