<svg width="35" height="35" viewBox="0 0 35 35" fill="none" xmlns="http://www.w3.org/2000/svg">
<rect x="0.5" y="0.5" width="34" height="34" rx="3.5" fill="white" stroke="#6C63FF"/>
<g clip-path="url(#clip0_1170_4697)">
<path d="M28.0018 11.1064H6.99825C6.75762 11.1064 6.5625 11.3015 6.5625 11.5422V23.4576C6.5625 23.6982 6.75762 23.8933 6.99825 23.8933H28.0018C28.2424 23.8933 28.4375 23.6982 28.4375 23.4576V11.5422C28.4375 11.3015 28.2424 11.1064 28.0018 11.1064ZM27.566 23.0219H7.434V11.9779H27.566L27.566 23.0219Z" fill="#6C63FF"/>
<path d="M25.5761 19.9524H19.8501C19.6094 19.9524 19.4143 20.1475 19.4143 20.3881C19.4143 20.6288 19.6094 20.8239 19.8501 20.8239H25.5761C25.8168 20.8239 26.0119 20.6288 26.0119 20.3881C26.0119 20.1475 25.8168 19.9524 25.5761 19.9524Z" fill="#6C63FF"/>
<path d="M25.5761 17.1545H19.8501C19.6094 17.1545 19.4143 17.3496 19.4143 17.5903C19.4143 17.831 19.6094 18.026 19.8501 18.026H25.5761C25.8168 18.026 26.0119 17.831 26.0119 17.5903C26.0119 17.3496 25.8168 17.1545 25.5761 17.1545Z" fill="#6C63FF"/>
<path d="M25.5997 14.3564H25.2565C25.0159 14.3564 24.8208 14.5515 24.8208 14.7922C24.8208 15.0329 25.0159 15.2279 25.2565 15.2279H25.5997C25.8403 15.2279 26.0355 15.0329 26.0355 14.7922C26.0355 14.5516 25.8403 14.3564 25.5997 14.3564Z" fill="#6C63FF"/>
<path d="M23.6006 14.3564H19.8501C19.6094 14.3564 19.4143 14.5515 19.4143 14.7922C19.4143 15.0329 19.6094 15.2279 19.8501 15.2279H23.6006C23.8413 15.2279 24.0364 15.0329 24.0364 14.7922C24.0364 14.5516 23.8413 14.3564 23.6006 14.3564Z" fill="#6C63FF"/>
<path d="M13.4408 17.9294C11.0298 17.9294 9.06836 19.5407 9.06836 21.521C9.06836 21.7617 9.26344 21.9568 9.50411 21.9568H17.3775C17.6181 21.9568 17.8132 21.7617 17.8132 21.521C17.8133 19.5406 15.8518 17.9294 13.4408 17.9294ZM9.98476 21.0853C10.2294 19.9099 11.4469 18.9846 12.9725 18.8254V19.7968C12.9725 20.0374 13.1677 20.2325 13.4083 20.2325C13.6489 20.2325 13.844 20.0374 13.844 19.7968V18.8196C15.3999 18.959 16.6488 19.8933 16.8969 21.0853H9.98476Z" fill="#6C63FF"/>
<path d="M13.4039 12.9744C12.1544 12.9744 11.1379 13.9909 11.1379 15.2403C11.1379 16.4897 12.1544 17.5063 13.4039 17.5063C14.6533 17.5063 15.6698 16.4897 15.6698 15.2403C15.6698 13.9909 14.6533 12.9744 13.4039 12.9744ZM13.4039 16.6347C12.635 16.6347 12.0095 16.0092 12.0095 15.2403C12.0095 14.4714 12.635 13.8459 13.4039 13.8459C14.1728 13.8459 14.7983 14.4714 14.7983 15.2403C14.7983 16.0092 14.1728 16.6347 13.4039 16.6347Z" fill="#6C63FF"/>
</g>
<defs>
<clipPath id="clip0_1170_4697">
<rect width="21.875" height="21.875" fill="white" transform="translate(6.5625 6.5625)"/>
</clipPath>
</defs>
</svg>
