<svg width="30" height="30" viewBox="0 0 30 30" fill="none" xmlns="http://www.w3.org/2000/svg">
<path d="M26.6001 12.8251H15.2418V17.2959H21.8876C21.7668 18.3834 21.0418 20.0751 19.4709 21.1626C18.5043 21.8876 17.0543 22.3709 15.2418 22.3709C12.1001 22.3709 9.32095 20.3167 8.35428 17.2959C8.11261 16.5709 7.99178 15.7251 7.99178 14.8792C7.99178 14.0334 8.11261 13.1876 8.35428 12.4626C8.47511 12.2209 8.47511 11.9792 8.59595 11.8584C9.68345 9.32091 12.2209 7.50842 15.2418 7.50842C17.5376 7.50842 18.9876 8.47508 19.9543 9.32092L23.3376 5.93758C21.2834 4.12508 18.5043 2.91675 15.2418 2.91675C10.5293 2.91675 6.42095 5.57508 4.48761 9.56258C3.64178 11.2542 3.15845 13.0667 3.15845 15.0001C3.15845 16.9334 3.64178 18.7459 4.48761 20.4376C6.42095 24.4251 10.5293 27.0834 15.2418 27.0834C18.5043 27.0834 21.2834 25.9959 23.2168 24.1834C25.5126 22.1292 26.8418 18.9876 26.8418 15.2417C26.8418 14.2751 26.7209 13.5501 26.6001 12.8251Z" stroke="#34A853" stroke-width="2" stroke-miterlimit="10" stroke-linecap="round" stroke-linejoin="round"/>
</svg>
