<svg width="19" height="21" viewBox="0 0 19 21" fill="none" xmlns="http://www.w3.org/2000/svg">
<mask id="path-1-inside-1_1265_4410" fill="white">
<path fill-rule="evenodd" clip-rule="evenodd" d="M1.59325 5.16593C0.589995 5.92169 0 7.1048 0 8.36086V17.275C0 18.9318 1.34315 20.275 3 20.275H15.9029C17.5597 20.275 18.9029 18.9318 18.9029 17.275V8.35991C18.9029 7.10439 18.3134 5.92171 17.3109 5.1659L11.2604 0.604491C10.1917 -0.201243 8.71845 -0.201522 7.64939 0.603807L1.59325 5.16593Z"/>
</mask>
<path fill-rule="evenodd" clip-rule="evenodd" d="M1.59325 5.16593C0.589995 5.92169 0 7.1048 0 8.36086V17.275C0 18.9318 1.34315 20.275 3 20.275H15.9029C17.5597 20.275 18.9029 18.9318 18.9029 17.275V8.35991C18.9029 7.10439 18.3134 5.92171 17.3109 5.1659L11.2604 0.604491C10.1917 -0.201243 8.71845 -0.201522 7.64939 0.603807L1.59325 5.16593Z" fill="url(#paint0_linear_1265_4410)"/>
<path d="M1.59325 5.16593L2.49578 6.36403L2.49578 6.36403L1.59325 5.16593ZM17.3109 5.1659L18.2138 3.96815L18.2138 3.96815L17.3109 5.1659ZM11.2604 0.604491L10.3574 1.80225L10.3574 1.80225L11.2604 0.604491ZM7.64939 0.603807L6.74686 -0.59429L6.74686 -0.594289L7.64939 0.603807ZM0.690714 3.96784C-0.688756 5.007 -1.5 6.63378 -1.5 8.36086H1.5C1.5 7.57582 1.86875 6.83638 2.49578 6.36403L0.690714 3.96784ZM-1.5 8.36086V17.275H1.5V8.36086H-1.5ZM-1.5 17.275C-1.5 19.7603 0.514719 21.775 3 21.775V18.775C2.17157 18.775 1.5 18.1034 1.5 17.275H-1.5ZM3 21.775H15.9029V18.775H3V21.775ZM15.9029 21.775C18.3882 21.775 20.4029 19.7603 20.4029 17.275H17.4029C17.4029 18.1034 16.7313 18.775 15.9029 18.775V21.775ZM20.4029 17.275V8.35991H17.4029V17.275H20.4029ZM20.4029 8.35991C20.4029 6.63357 19.5923 5.00739 18.2138 3.96815L16.4079 6.36365C17.0345 6.83604 17.4029 7.57521 17.4029 8.35991H20.4029ZM18.2138 3.96815L12.1634 -0.593264L10.3574 1.80225L16.4079 6.36365L18.2138 3.96815ZM12.1634 -0.593264C10.5603 -1.80187 8.35045 -1.80228 6.74686 -0.59429L8.55192 1.8019C9.08646 1.39924 9.82307 1.39938 10.3574 1.80225L12.1634 -0.593264ZM6.74686 -0.594289L0.690714 3.96784L2.49578 6.36403L8.55193 1.8019L6.74686 -0.594289Z" fill="url(#paint1_linear_1265_4410)" mask="url(#path-1-inside-1_1265_4410)"/>
<defs>
<linearGradient id="paint0_linear_1265_4410" x1="0.504077" y1="0.603721" x2="13.0297" y2="22.9491" gradientUnits="userSpaceOnUse">
<stop stop-color="#5B61EB"/>
<stop offset="1" stop-color="#CE5BEB"/>
</linearGradient>
<linearGradient id="paint1_linear_1265_4410" x1="0.504077" y1="0.603721" x2="13.0297" y2="22.9491" gradientUnits="userSpaceOnUse">
<stop stop-color="#CE5BEB"/>
<stop offset="1" stop-color="#5B61EB"/>
</linearGradient>
</defs>
</svg>
