<svg width="46" height="44" viewBox="0 0 46 44" fill="none" xmlns="http://www.w3.org/2000/svg">
<rect width="46" height="44" rx="8" fill="#6C63FF"/>
<path d="M7.5 26.6499C7.5 32.6484 12.3515 37.4999 18.35 37.4999L16.7225 34.7874" stroke="white" stroke-width="1.5" stroke-linecap="round" stroke-linejoin="round"/>
<path d="M38.4999 17.35C38.4999 11.3515 33.6484 6.5 27.6499 6.5L29.2774 9.2125" stroke="white" stroke-width="1.5" stroke-linecap="round" stroke-linejoin="round"/>
<path d="M23 32C28.5228 32 33 27.5228 33 22C33 16.4772 28.5228 12 23 12C17.4772 12 13 16.4772 13 22C13 27.5228 17.4772 32 23 32Z" stroke="white" stroke-width="1.5" stroke-linecap="round" stroke-linejoin="round"/>
<path d="M19 13H20C18.05 18.84 18.05 25.16 20 31H19" stroke="white" stroke-width="1.5" stroke-linecap="round" stroke-linejoin="round"/>
<path d="M26 13C27.95 18.84 27.95 25.16 26 31" stroke="white" stroke-width="1.5" stroke-linecap="round" stroke-linejoin="round"/>
<path d="M14 26V25C19.84 26.95 26.16 26.95 32 25V26" stroke="white" stroke-width="1.5" stroke-linecap="round" stroke-linejoin="round"/>
<path d="M14 19C19.84 17.05 26.16 17.05 32 19" stroke="white" stroke-width="1.5" stroke-linecap="round" stroke-linejoin="round"/>
<path d="M5 8C5 6.34315 6.34315 5 8 5H16C17.6569 5 19 6.34315 19 8V11.0616C19 11.2377 18.8643 11.3875 18.6919 11.4241C18.0387 11.5629 16.4162 12.0838 14.5 14C12 16.5 12.1152 19 11.5 19C11.1081 19 9.68708 19 8.00045 19C6.34359 19 5 17.6569 5 16V8Z" fill="white"/>
<path d="M41 36C41 37.6569 39.6569 39 38 39H30C28.3431 39 27 37.6569 27 36V32.9384C27 32.7623 27.1357 32.6125 27.3081 32.5759C27.9613 32.4371 29.5838 31.9162 31.5 30C34 27.5 33.8848 25 34.5 25C34.8919 25 36.3129 25 37.9996 25C39.6564 25 41 26.3431 41 28V36Z" fill="white"/>
<path d="M13.07 9.01416H7.01494" stroke="#6C63FF" stroke-width="1.5" stroke-linecap="round" stroke-linejoin="round"/>
<path d="M10.0276 8V9.01414" stroke="#6C63FF" stroke-width="1.5" stroke-linecap="round" stroke-linejoin="round"/>
<path d="M11.5488 8.99933C11.5488 11.6093 9.50556 13.7271 7 13.7271" stroke="#6C63FF" stroke-width="1.5" stroke-linecap="round" stroke-linejoin="round"/>
<path d="M13.07 13.727C11.9813 13.727 10.997 13.1454 10.3109 12.2207" stroke="#6C63FF" stroke-width="1.5" stroke-linecap="round" stroke-linejoin="round"/>
<path d="M38.28 35.2653L35.14 29L32 35.2653" stroke="#6C63FF" stroke-width="1.5" stroke-linecap="round" stroke-linejoin="round"/>
<path d="M32.5723 34.15H37.7371" stroke="#6C63FF" stroke-width="1.5" stroke-linecap="round" stroke-linejoin="round"/>
</svg>
