<svg width="30" height="29" viewBox="0 0 30 29" fill="none" xmlns="http://www.w3.org/2000/svg">
<path d="M19.8334 9.66675C21.7562 9.66675 23.6003 10.4306 24.9599 11.7902C26.3196 13.1499 27.0834 14.9939 27.0834 16.9167V25.3751H22.2501V16.9167C22.2501 16.2758 21.9955 15.6611 21.5423 15.2079C21.089 14.7547 20.4744 14.5001 19.8334 14.5001C19.1925 14.5001 18.5778 14.7547 18.1246 15.2079C17.6714 15.6611 17.4167 16.2758 17.4167 16.9167V25.3751H12.5834V16.9167C12.5834 14.9939 13.3473 13.1499 14.7069 11.7902C16.0665 10.4306 17.9106 9.66675 19.8334 9.66675Z" stroke="#0077B5" stroke-width="1.6" stroke-linecap="round" stroke-linejoin="round"/>
<path d="M7.75008 10.8751H2.91675V25.3751H7.75008V10.8751Z" stroke="#0077B5" stroke-width="1.6" stroke-linecap="round" stroke-linejoin="round"/>
<path d="M5.33341 7.25008C6.6681 7.25008 7.75008 6.1681 7.75008 4.83341C7.75008 3.49873 6.6681 2.41675 5.33341 2.41675C3.99873 2.41675 2.91675 3.49873 2.91675 4.83341C2.91675 6.1681 3.99873 7.25008 5.33341 7.25008Z" stroke="#0077B5" stroke-width="1.6" stroke-linecap="round" stroke-linejoin="round"/>
</svg>
