<svg width="100" height="96" viewBox="0 0 100 96" fill="none" xmlns="http://www.w3.org/2000/svg">
<rect width="100" height="95.6521" rx="8" fill="#6C63FF"/>
<path d="M16.3042 57.9346C16.3042 70.9748 26.8509 81.5215 39.8912 81.5215L36.3531 75.6248" stroke="white" stroke-width="2.5" stroke-linecap="round" stroke-linejoin="round"/>
<path d="M83.6954 37.7173C83.6954 24.6771 73.1486 14.1304 60.1084 14.1304L63.6465 20.0271" stroke="white" stroke-width="2.5" stroke-linecap="round" stroke-linejoin="round"/>
<path d="M49.9999 69.5652C62.0061 69.5652 71.739 59.8322 71.739 47.826C71.739 35.8199 62.0061 26.0869 49.9999 26.0869C37.9937 26.0869 28.2607 35.8199 28.2607 47.826C28.2607 59.8322 37.9937 69.5652 49.9999 69.5652Z" stroke="white" stroke-width="1.5" stroke-linecap="round" stroke-linejoin="round"/>
<path d="M41.3043 28.2607H43.4782C39.239 40.9564 39.239 54.6955 43.4782 67.3912H41.3043" stroke="white" stroke-width="1.5" stroke-linecap="round" stroke-linejoin="round"/>
<path d="M56.522 28.2607C60.7611 40.9564 60.7611 54.6955 56.522 67.3912" stroke="white" stroke-width="1.5" stroke-linecap="round" stroke-linejoin="round"/>
<path d="M30.4351 56.5216V54.3477C43.1307 58.5868 56.8698 58.5868 69.5655 54.3477V56.5216" stroke="white" stroke-width="1.5" stroke-linecap="round" stroke-linejoin="round"/>
<path d="M30.4351 41.3043C43.1307 37.0652 56.8698 37.0652 69.5655 41.3043" stroke="white" stroke-width="1.5" stroke-linecap="round" stroke-linejoin="round"/>
<path d="M10.8696 13.8696C10.8696 12.2128 12.2128 10.8696 13.8696 10.8696H38.3044C39.9613 10.8696 41.3044 12.2128 41.3044 13.8696V24.047C41.3044 24.4299 41.0093 24.7554 40.6347 24.835C39.2147 25.1367 35.6875 26.2691 31.5218 30.4348C26.087 35.8696 26.3375 41.3044 25.0001 41.3044C23.8843 41.3044 18.9315 41.3044 13.8697 41.3044C12.2129 41.3044 10.8696 39.9613 10.8696 38.3044V13.8696Z" fill="white"/>
<path d="M89.1304 81.7825C89.1304 83.4393 87.7872 84.7825 86.1304 84.7825H61.6956C60.0387 84.7825 58.6956 83.4393 58.6956 81.7825V71.6051C58.6956 71.2222 58.9907 70.8967 59.3653 70.8171C60.7854 70.5154 64.3125 69.383 68.4782 65.2173C73.913 59.7825 73.6625 54.3477 74.9999 54.3477C76.1157 54.3477 81.0685 54.3477 86.1303 54.3477C87.7871 54.3477 89.1304 55.6908 89.1304 57.3477V81.7825Z" fill="white"/>
<path d="M28.4132 19.5959H15.25" stroke="#6C63FF" stroke-width="2.5" stroke-linecap="round" stroke-linejoin="round"/>
<path d="M21.7988 17.3914V19.596" stroke="#6C63FF" stroke-width="2.5" stroke-linecap="round" stroke-linejoin="round"/>
<path d="M25.1059 19.5637C25.1059 25.2375 20.6641 29.8414 15.2173 29.8414" stroke="#6C63FF" stroke-width="2.5" stroke-linecap="round" stroke-linejoin="round"/>
<path d="M28.413 29.8415C26.0463 29.8415 23.9064 28.577 22.415 26.5669" stroke="#6C63FF" stroke-width="2.5" stroke-linecap="round" stroke-linejoin="round"/>
<path d="M83.2176 76.6636L76.3915 63.0435L69.5654 76.6636" stroke="#6C63FF" stroke-width="2.5" stroke-linecap="round" stroke-linejoin="round"/>
<path d="M70.8096 74.2393H82.0375" stroke="#6C63FF" stroke-width="2.5" stroke-linecap="round" stroke-linejoin="round"/>
</svg>
