<svg width="22" height="22" viewBox="0 0 22 22" fill="none" xmlns="http://www.w3.org/2000/svg">
<path d="M19.4242 7.36995L16.5092 4.45496C15.4092 3.35496 13.8967 3.40998 13.1542 4.59248L11.5317 7.15914L16.7292 12.3566L19.2958 10.7342C20.405 10.0283 20.4692 8.40579 19.4242 7.36995Z" stroke="#6C63FF" stroke-width="1.5" stroke-linecap="round" stroke-linejoin="round"/>
<path d="M16.7292 12.3474L16.9492 16.1241C17.16 18.2324 16.4267 18.9657 14.4283 19.2041L6.43501 20.1483C4.74834 20.3408 3.53834 19.1308 3.74001 17.4533L4.63834 9.86328" stroke="#6C63FF" stroke-width="1.5" stroke-linecap="round" stroke-linejoin="round"/>
<path d="M11.5317 7.15917L9.92751 7.05835" stroke="#6C63FF" stroke-width="1.5" stroke-linecap="round" stroke-linejoin="round"/>
<path d="M4.84001 19.0482L7.75502 16.124" stroke="#6C63FF" stroke-width="1.5" stroke-linecap="round" stroke-linejoin="round"/>
<path d="M10.0833 5.95825C10.0833 6.33409 10.0283 6.70993 9.9275 7.05826C9.82666 7.42493 9.68 7.76409 9.4875 8.08493C9.2675 8.45159 8.9925 8.78159 8.67167 9.05659C7.9475 9.69826 7.00333 10.0833 5.95833 10.0833C5.49083 10.0833 5.05083 10.0099 4.63833 9.86326C3.70333 9.55159 2.92416 8.90993 2.42916 8.08493C2.05332 7.46159 1.83333 6.72825 1.83333 5.95825C1.83333 4.65659 2.42916 3.49241 3.3825 2.74074C4.08833 2.17241 4.98666 1.83325 5.95833 1.83325C8.24083 1.83325 10.0833 3.67575 10.0833 5.95825Z" stroke="#6C63FF" stroke-width="1.5" stroke-miterlimit="10" stroke-linecap="round" stroke-linejoin="round"/>
<path d="M5.97668 7.49844V4.41846" stroke="#6C63FF" stroke-width="1.5" stroke-miterlimit="10" stroke-linecap="round" stroke-linejoin="round"/>
<path d="M7.48001 5.9585H4.40001" stroke="#6C63FF" stroke-width="1.5" stroke-miterlimit="10" stroke-linecap="round" stroke-linejoin="round"/>
</svg>
