<svg width="86" height="86" viewBox="0 0 86 86" fill="none" xmlns="http://www.w3.org/2000/svg">
<path d="M43.4999 46.2499C43.2082 46.2083 42.8332 46.2083 42.4999 46.2499C35.1666 45.9999 29.3333 39.9999 29.3333 32.6249C29.3333 25.0833 35.4166 18.9583 42.9999 18.9583C50.5416 18.9583 56.6666 25.0833 56.6666 32.6249C56.6249 39.9999 50.8332 45.9999 43.4999 46.2499Z" fill="#D9D9D9" stroke="#969696" stroke-linecap="round" stroke-linejoin="round"/>
<path d="M71.0834 73.75C63.6667 80.5417 53.8334 84.6667 43.0001 84.6667C32.1667 84.6667 22.3334 80.5417 14.9167 73.75C15.3334 69.8333 17.8334 66 22.2917 63C33.7084 55.4167 52.3751 55.4167 63.7084 63C68.1667 66 70.6668 69.8333 71.0834 73.75Z" fill="#D9D9D9" stroke="#969696" stroke-linecap="round" stroke-linejoin="round"/>
<path d="M42.9999 84.6666C66.0118 84.6666 84.6666 66.0118 84.6666 42.9999C84.6666 19.9881 66.0118 1.33325 42.9999 1.33325C19.9881 1.33325 1.33325 19.9881 1.33325 42.9999C1.33325 66.0118 19.9881 84.6666 42.9999 84.6666Z" stroke="#969696" stroke-width="2" stroke-linecap="round" stroke-linejoin="round"/>
</svg>
