<svg width="23" height="22" viewBox="0 0 23 22" fill="none" xmlns="http://www.w3.org/2000/svg">
<g filter="url(#filter0_d_1224_5044)">
<path d="M21.3333 4.2584V13.7251C21.3333 14.9334 20.4666 15.4417 19.4083 14.8584L16.3333 13.1417V7.49174C16.3333 6.06674 15.1666 4.90009 13.7416 4.90009H9.66663V4.2584C9.66663 2.8334 10.8333 1.66675 12.2583 1.66675H18.7416C20.1666 1.66675 21.3333 2.8334 21.3333 4.2584Z" fill="url(#paint0_linear_1224_5044)" stroke="black" stroke-linecap="round" stroke-linejoin="round"/>
<path d="M4.66663 16.9582C4.66663 18.1666 5.53329 18.6749 6.59162 18.0916L9.86662 16.2666C10.2166 16.0749 10.7833 16.0749 11.1333 16.2666L14.4083 18.0916C15.4666 18.6749 16.3333 18.1666 16.3333 16.9582V7.49156C16.3333 6.06656 15.1666 4.8999 13.7416 4.8999H7.25828C5.83328 4.8999 4.66663 6.06656 4.66663 7.49156V12.9249" fill="url(#paint1_linear_1224_5044)"/>
<path d="M4.66663 16.9582C4.66663 18.1666 5.53329 18.6749 6.59162 18.0916L9.86662 16.2666C10.2166 16.0749 10.7833 16.0749 11.1333 16.2666L14.4083 18.0916C15.4666 18.6749 16.3333 18.1666 16.3333 16.9582V7.49156C16.3333 6.06656 15.1666 4.8999 13.7416 4.8999H7.25828C5.83328 4.8999 4.66663 6.06656 4.66663 7.49156V12.9249" stroke="black" stroke-linecap="round" stroke-linejoin="round"/>
</g>
<defs>
<filter id="filter0_d_1224_5044" x="-1" y="0" width="24" height="23" filterUnits="userSpaceOnUse" color-interpolation-filters="sRGB">
<feFlood flood-opacity="0" result="BackgroundImageFix"/>
<feColorMatrix in="SourceAlpha" type="matrix" values="0 0 0 0 0 0 0 0 0 0 0 0 0 0 0 0 0 0 127 0" result="hardAlpha"/>
<feOffset dx="-3" dy="2"/>
<feGaussianBlur stdDeviation="0.5"/>
<feComposite in2="hardAlpha" operator="out"/>
<feColorMatrix type="matrix" values="0 0 0 0 0.423529 0 0 0 0 0.388235 0 0 0 0 1 0 0 0 0.25 0"/>
<feBlend mode="normal" in2="BackgroundImageFix" result="effect1_dropShadow_1224_5044"/>
<feBlend mode="normal" in="SourceGraphic" in2="effect1_dropShadow_1224_5044" result="shape"/>
</filter>
<linearGradient id="paint0_linear_1224_5044" x1="9.97774" y1="2.06675" x2="18.5737" y2="16.3514" gradientUnits="userSpaceOnUse">
<stop stop-color="#CE5BEB"/>
<stop offset="1" stop-color="#5B61EB"/>
</linearGradient>
<linearGradient id="paint1_linear_1224_5044" x1="4.97774" y1="5.29991" x2="13.5737" y2="19.5845" gradientUnits="userSpaceOnUse">
<stop stop-color="#CE5BEB"/>
<stop offset="1" stop-color="#5B61EB"/>
</linearGradient>
</defs>
</svg>
