<svg width="24" height="23" viewBox="0 0 24 23" fill="none" xmlns="http://www.w3.org/2000/svg">
<g filter="url(#filter0_d_1224_4105)">
<path d="M22.3333 4.2584V13.7251C22.3333 14.9334 21.4666 15.4417 20.4083 14.8584L17.3333 13.1417V7.49174C17.3333 6.06674 16.1666 4.90009 14.7416 4.90009H10.6666V4.2584C10.6666 2.8334 11.8333 1.66675 13.2583 1.66675H19.7416C21.1666 1.66675 22.3333 2.8334 22.3333 4.2584Z" stroke="#171717" stroke-width="1.5" stroke-linecap="round" stroke-linejoin="round"/>
<path d="M5.66663 16.9582C5.66663 18.1666 6.53329 18.6749 7.59162 18.0916L10.8666 16.2666C11.2166 16.0749 11.7833 16.0749 12.1333 16.2666L15.4083 18.0916C16.4666 18.6749 17.3333 18.1666 17.3333 16.9582V7.49156C17.3333 6.06656 16.1666 4.8999 14.7416 4.8999H8.25828C6.83328 4.8999 5.66663 6.06656 5.66663 7.49156V12.9249" stroke="#171717" stroke-width="1.5" stroke-linecap="round" stroke-linejoin="round"/>
</g>
<defs>
<filter id="filter0_d_1224_4105" x="0" y="0" width="24" height="23" filterUnits="userSpaceOnUse" color-interpolation-filters="sRGB">
<feFlood flood-opacity="0" result="BackgroundImageFix"/>
<feColorMatrix in="SourceAlpha" type="matrix" values="0 0 0 0 0 0 0 0 0 0 0 0 0 0 0 0 0 0 127 0" result="hardAlpha"/>
<feOffset dx="-3" dy="2"/>
<feGaussianBlur stdDeviation="0.5"/>
<feComposite in2="hardAlpha" operator="out"/>
<feColorMatrix type="matrix" values="0 0 0 0 0.423529 0 0 0 0 0.388235 0 0 0 0 1 0 0 0 0.25 0"/>
<feBlend mode="normal" in2="BackgroundImageFix" result="effect1_dropShadow_1224_4105"/>
<feBlend mode="normal" in="SourceGraphic" in2="effect1_dropShadow_1224_4105" result="shape"/>
</filter>
</defs>
</svg>
