<svg width="18" height="19" viewBox="0 0 18 19" fill="none" xmlns="http://www.w3.org/2000/svg">
<g clip-path="url(#clip0_1338_5781)">
<path d="M14.0998 17.85C15.5081 17.85 16.6498 16.7083 16.6498 15.3C16.6498 13.8917 15.5081 12.75 14.0998 12.75C12.6915 12.75 11.5498 13.8917 11.5498 15.3C11.5498 16.7083 12.6915 17.85 14.0998 17.85Z" stroke="white" stroke-width="1.5" stroke-linecap="round" stroke-linejoin="round"/>
<path d="M3.9001 11.9C5.30842 11.9 6.4501 10.7584 6.4501 9.35005C6.4501 7.94172 5.30842 6.80005 3.9001 6.80005C2.49177 6.80005 1.3501 7.94172 1.3501 9.35005C1.3501 10.7584 2.49177 11.9 3.9001 11.9Z" stroke="white" stroke-width="1.5" stroke-linecap="round" stroke-linejoin="round"/>
<path d="M6.10156 10.6335L11.9071 14.0165" stroke="white" stroke-width="1.5" stroke-linecap="round" stroke-linejoin="round"/>
<path d="M14.0998 5.9501C15.5081 5.9501 16.6498 4.80842 16.6498 3.4001C16.6498 1.99177 15.5081 0.850098 14.0998 0.850098C12.6915 0.850098 11.5498 1.99177 11.5498 3.4001C11.5498 4.80842 12.6915 5.9501 14.0998 5.9501Z" stroke="white" stroke-width="1.5" stroke-linecap="round" stroke-linejoin="round"/>
<path d="M11.8986 4.68359L6.10156 8.06659" stroke="white" stroke-width="1.5" stroke-linecap="round" stroke-linejoin="round"/>
</g>
<defs>
<clipPath id="clip0_1338_5781">
<rect width="17" height="18.7" fill="white" transform="translate(0.5)"/>
</clipPath>
</defs>
</svg>
