<svg width="24" height="21" viewBox="0 0 24 21" fill="none" xmlns="http://www.w3.org/2000/svg">
<circle cx="12" cy="4" r="3" stroke="#17C55D" stroke-width="1.5" stroke-linecap="round"/>
<path d="M14.3182 2.1875C14.5531 1.7807 14.9033 1.45268 15.3246 1.24493C15.7459 1.03717 16.2193 0.959006 16.685 1.02032C17.1507 1.08163 17.5878 1.27967 17.9409 1.58938C18.2941 1.8991 18.5475 2.30658 18.6691 2.76031C18.7906 3.21403 18.7749 3.69362 18.624 4.13842C18.473 4.58322 18.1935 4.97326 17.8208 5.25921C17.4481 5.54517 16.9991 5.71419 16.5303 5.74491C16.0616 5.77564 15.5943 5.66668 15.1875 5.43181" stroke="#17C55D" stroke-width="1.5"/>
<path d="M9.68181 2.1875C9.44695 1.7807 9.09672 1.45268 8.67544 1.24493C8.25415 1.03717 7.78071 0.959006 7.315 1.02032C6.84929 1.08163 6.41222 1.27967 6.05905 1.58938C5.70589 1.8991 5.4525 2.30658 5.33093 2.76031C5.20935 3.21403 5.22505 3.69362 5.37604 4.13842C5.52703 4.58322 5.80653 4.97326 6.17919 5.25921C6.55185 5.54517 7.00094 5.71419 7.46967 5.74491C7.93839 5.77564 8.4057 5.66668 8.8125 5.43181" stroke="#17C55D" stroke-width="1.5"/>
<path d="M12 9.625C17.3061 9.625 18.517 14.0925 18.7933 16.1315C18.8675 16.6788 18.4273 17.125 17.875 17.125H6.125C5.57271 17.125 5.13254 16.6788 5.20671 16.1315C5.48304 14.0925 6.69393 9.625 12 9.625Z" stroke="#17C55D" stroke-width="1.5" stroke-linecap="round"/>
<path d="M21.1848 13.5394L21.9163 13.3738V13.3738L21.1848 13.5394ZM13.3589 9.73239L12.805 9.22669L11.8744 10.246L13.2359 10.4722L13.3589 9.73239ZM18.4767 14.625L17.7562 14.8334L17.9129 15.375H18.4767V14.625ZM16.375 9.125C17.6702 9.125 18.5661 9.78676 19.2199 10.7172C19.8881 11.6681 20.2597 12.8495 20.4533 13.7049L21.9163 13.3738C21.7048 12.4394 21.2789 11.0385 20.4472 9.8548C19.601 8.65049 18.2946 7.625 16.375 7.625V9.125ZM13.9128 10.2381C14.5188 9.57432 15.3044 9.125 16.375 9.125V7.625C14.8125 7.625 13.6441 8.30772 12.805 9.22669L13.9128 10.2381ZM13.2359 10.4722C16.0429 10.9387 17.2348 13.0311 17.7562 14.8334L19.1971 14.4166C18.6021 12.3598 17.1129 9.59595 13.4818 8.99254L13.2359 10.4722ZM20.27 13.875H18.4767V15.375H20.27V13.875ZM20.4533 13.7049C20.4596 13.7327 20.4575 13.7513 20.4542 13.7641C20.4506 13.7781 20.443 13.7939 20.4292 13.81C20.4013 13.8426 20.3481 13.875 20.27 13.875V15.375C21.2853 15.375 22.1654 14.4744 21.9163 13.3738L20.4533 13.7049Z" fill="#17C55D"/>
<path d="M10.6412 9.73239L10.7642 10.4722L12.1257 10.246L11.1951 9.22669L10.6412 9.73239ZM2.81528 13.5394L2.08378 13.3738V13.3738L2.81528 13.5394ZM5.52347 14.625V15.375H6.08725L6.24393 14.8334L5.52347 14.625ZM7.62511 9.125C8.69578 9.125 9.48133 9.57432 10.0874 10.2381L11.1951 9.22669C10.3561 8.30773 9.18765 7.625 7.62511 7.625V9.125ZM3.54678 13.7049C3.74039 12.8495 4.11204 11.6681 4.78025 10.7172C5.434 9.78676 6.32994 9.125 7.62511 9.125V7.625C5.70556 7.625 4.39914 8.65049 3.55293 9.8548C2.72117 11.0385 2.29526 12.4394 2.08378 13.3738L3.54678 13.7049ZM3.7301 13.875C3.652 13.875 3.59885 13.8426 3.57092 13.81C3.55706 13.7939 3.54952 13.7781 3.54589 13.7641C3.54258 13.7513 3.5405 13.7327 3.54678 13.7049L2.08378 13.3738C1.8347 14.4744 2.71478 15.375 3.7301 15.375V13.875ZM5.52347 13.875H3.7301V15.375H5.52347V13.875ZM6.24393 14.8334C6.76537 13.0311 7.95724 10.9387 10.7642 10.4722L10.5183 8.99254C6.88723 9.59595 5.39806 12.3598 4.80302 14.4166L6.24393 14.8334Z" fill="#17C55D"/>
</svg>
