<svg width="36" height="36" viewBox="0 0 36 36" fill="none" xmlns="http://www.w3.org/2000/svg">
<path d="M31.62 12.8701V23.13C31.62 24.81 30.72 26.3701 29.265 27.2251L20.355 32.3701C18.9 33.2101 17.1 33.2101 15.63 32.3701L6.71999 27.2251C5.26499 26.3851 4.36499 24.825 4.36499 23.13V12.8701C4.36499 11.1901 5.26499 9.62999 6.71999 8.77499L15.63 3.63C17.085 2.79 18.885 2.79 20.355 3.63L29.265 8.77499C30.72 9.62999 31.62 11.1751 31.62 12.8701Z" stroke="white" stroke-width="2" stroke-linecap="round" stroke-linejoin="round"/>
<path d="M18 16.5C19.9302 16.5 21.495 14.9352 21.495 13.0049C21.495 11.0747 19.9302 9.51001 18 9.51001C16.0698 9.51001 14.505 11.0747 14.505 13.0049C14.505 14.9352 16.0698 16.5 18 16.5Z" stroke="white" stroke-width="2" stroke-linecap="round" stroke-linejoin="round"/>
<path d="M24 24.99C24 22.29 21.315 20.1001 18 20.1001C14.685 20.1001 12 22.29 12 24.99" stroke="white" stroke-width="2" stroke-linecap="round" stroke-linejoin="round"/>
</svg>
