<svg width="30" height="30" viewBox="0 0 30 30" fill="none" xmlns="http://www.w3.org/2000/svg">
<path d="M8.83758 25.3917C10.6501 26.4792 12.8251 27.0834 15.0001 27.0834C21.6459 27.0834 27.0834 21.6459 27.0834 15.0001C27.0834 8.35425 21.6459 2.91675 15.0001 2.91675C8.35425 2.91675 2.91675 8.35425 2.91675 15.0001C2.91675 17.1751 3.52091 19.2292 4.48758 21.0417L3.35719 25.3894C3.16247 26.1383 3.85567 26.8152 4.59973 26.6026L8.83758 25.3917Z" stroke="#34C759" stroke-width="2" stroke-miterlimit="10" stroke-linecap="round" stroke-linejoin="round"/>
<path d="M20.4375 18.4419C20.4375 18.6377 20.3939 18.8389 20.3014 19.0346C20.2088 19.2304 20.089 19.4153 19.9311 19.5893C19.6642 19.8829 19.3701 20.0949 19.038 20.2309C18.7112 20.3668 18.3573 20.4375 17.9761 20.4375C17.4206 20.4375 16.827 20.307 16.2008 20.0406C15.5745 19.7741 14.9483 19.4153 14.3275 18.9639C13.7012 18.5072 13.1076 18.0015 12.5413 17.4414C11.9804 16.8759 11.4739 16.2832 11.0219 15.6634C10.5754 15.0435 10.216 14.4236 9.95459 13.8092C9.6932 13.1893 9.5625 12.5966 9.5625 12.0311C9.5625 11.6614 9.62785 11.3079 9.75854 10.9817C9.88924 10.65 10.0962 10.3455 10.3848 10.0736C10.7333 9.73106 11.1145 9.5625 11.5175 9.5625C11.67 9.5625 11.8225 9.59513 11.9586 9.66038C12.1002 9.72563 12.2254 9.8235 12.3235 9.96487L13.5868 11.7429C13.6849 11.8789 13.7557 12.0039 13.8047 12.1236C13.8537 12.2377 13.8809 12.3519 13.8809 12.4553C13.8809 12.5858 13.8428 12.7162 13.7666 12.8413C13.6958 12.9664 13.5923 13.0969 13.4616 13.2274L13.0477 13.6569C12.9878 13.7167 12.9606 13.7874 12.9606 13.8744C12.9606 13.9179 12.966 13.956 12.9769 13.9995C12.9933 14.043 13.0096 14.0756 13.0205 14.1082C13.1185 14.2877 13.2873 14.5215 13.5269 14.8043C13.772 15.087 14.0334 15.3752 14.3166 15.6634C14.6106 15.9516 14.8938 16.218 15.1824 16.4627C15.4656 16.7019 15.6998 16.8651 15.8849 16.9629C15.9121 16.9738 15.9448 16.9901 15.9829 17.0064C16.0265 17.0227 16.0701 17.0282 16.1191 17.0282C16.2117 17.0282 16.2825 16.9956 16.3424 16.9358L16.7562 16.5279C16.8924 16.392 17.0231 16.2887 17.1483 16.2234C17.2736 16.1473 17.3988 16.1092 17.535 16.1092C17.6384 16.1092 17.7473 16.131 17.8671 16.1799C17.9869 16.2289 18.1122 16.2996 18.2483 16.392L20.0509 17.6698C20.1924 17.7677 20.2905 17.8819 20.3504 18.0178C20.4048 18.1537 20.4375 18.2897 20.4375 18.4419Z" stroke="#34C759" stroke-width="2" stroke-miterlimit="10"/>
</svg>
